HIERARCHY
ROOT SpineBase
{
  OFFSET 0.000000 0.000000 0.000000
  CHANNELS 6 Xposition Yposition Zposition Zrotation Xrotation Yrotation
  JOINT SpineMid
  {
    OFFSET 0.000000 31.640187 0.000000
    CHANNELS 3 Zrotation Xrotation Yrotation
    JOINT SpineShoulder
    {
      OFFSET -0.008752 23.612663 -0.678208
      CHANNELS 3 Zrotation Xrotation Yrotation
      JOINT Neck
      {
        OFFSET -0.004107 7.826925 -0.561766
        CHANNELS 3 Zrotation Xrotation Yrotation
        JOINT Head
        {
          OFFSET -1.684565 11.055478 0.457739
          CHANNELS 3 Zrotation Xrotation Yrotation
          End Site
          {
            OFFSET 0 0 0
          }
        }
      }
      JOINT ShoulderLeft
      {
        OFFSET -18.062056 -4.703575 4.652668
        CHANNELS 3 Zrotation Xrotation Yrotation
        JOINT ElbowLeft
        {
          OFFSET -2.287657 -28.734471 -0.848552
          CHANNELS 3 Zrotation Xrotation Yrotation
          JOINT WristLeft
          {
            OFFSET -1.637144 -21.572302 -5.399663
            CHANNELS 3 Zrotation Xrotation Yrotation
            JOINT HandLeft
            {
              OFFSET 0.402565 -7.132762 0.490958
              CHANNELS 3 Zrotation Xrotation Yrotation
              JOINT HandTipLeft
              {
                OFFSET -0.723110 -6.172760 -1.722226
                CHANNELS 3 Zrotation Xrotation Yrotation
                End Site
                {
                  OFFSET 0 0 0
                }
              }
              JOINT ThumbLeft
              {
                OFFSET -4.196389 1.251272 -2.616684
                CHANNELS 3 Zrotation Xrotation Yrotation
                End Site
                {
                  OFFSET 0 0 0
                }
              }
            }
          }
        }
      }
      JOINT ShoulderRight
      {
        OFFSET 16.116111 -3.132680 -7.446894
        CHANNELS 3 Zrotation Xrotation Yrotation
        JOINT ElbowRight
        {
          OFFSET 5.934186 -26.200710 -2.084316
          CHANNELS 3 Zrotation Xrotation Yrotation
          JOINT WristRight
          {
            OFFSET 0.258741 -22.570086 -6.927058
            CHANNELS 3 Zrotation Xrotation Yrotation
            JOINT HandRight
            {
              OFFSET -2.274957 -5.941777 -1.989815
              CHANNELS 3 Zrotation Xrotation Yrotation
              JOINT HandTipRight
              {
                OFFSET -0.547922 -7.143110 -2.047168
                CHANNELS 3 Zrotation Xrotation Yrotation
                End Site
                {
                  OFFSET 0 0 0
                }
              }
              JOINT ThumbRight
              {
                OFFSET -3.494148 -0.548971 -2.342403
                CHANNELS 3 Zrotation Xrotation Yrotation
                End Site
                {
                  OFFSET 0 0 0
                }
              }
            }
          }
        }
      }
    }
  }
  JOINT HipLeft
  {
    OFFSET -6.637039 0.375958 -1.619440
    CHANNELS 3 Zrotation Xrotation Yrotation
    JOINT KneeLeft
    {
      OFFSET -1.725495 -34.535819 4.464545
      CHANNELS 3 Zrotation Xrotation Yrotation
      JOINT AnkleLeft
      {
        OFFSET -0.960216 -36.681080 10.796263
        CHANNELS 3 Zrotation Xrotation Yrotation
        JOINT FootLeft
        {
          OFFSET -2.614287 -6.785813 -7.412085
          CHANNELS 3 Zrotation Xrotation Yrotation
          End Site
          {
            OFFSET 0 0 0
          }
        }
      }
    }
  }
  JOINT HipRight
  {
    OFFSET 6.566353 1.484939 -6.014341
    CHANNELS 3 Zrotation Xrotation Yrotation
    JOINT KneeRight
    {
      OFFSET 8.639265 -31.962358 -2.413548
      CHANNELS 3 Zrotation Xrotation Yrotation
      JOINT AnkleRight
      {
        OFFSET 3.007930 -38.020720 6.729036
        CHANNELS 3 Zrotation Xrotation Yrotation
        JOINT FootRight
        {
          OFFSET -1.757571 -7.321081 -7.990894
          CHANNELS 3 Zrotation Xrotation Yrotation
          End Site
          {
            OFFSET 0 0 0
          }
        }
      }
    }
  }
}
MOTION
Frames: 16
Frame Time: 0.033333
-3.730625 76.206077 363.064179 7.505839 6.934145 20.026896 0.361095 -0.365468 -20.207172 0.160648 -0.152265 0.377535 7.199573 0.001477 0.189508 0.000000 0.000000 0.000000 1.586534 0.206910 -1.350742 -4.746167 7.669647 -2.074737 -3.100641 12.376126 3.481184 6.722236 -14.600620 -2.910204 0.000000 0.000000 0.000000 0.000000 0.000000 0.000000 9.376197 10.103251 0.752530 25.109957 28.928833 -21.322747 -1.155705 -15.702553 -11.433612 -25.624395 13.339567 8.428293 0.000000 0.000000 0.000000 0.000000 0.000000 0.000000 -4.309343 2.509824 -20.803631 5.791316 -9.507278 3.610210 -12.096940 22.520969 -3.820437 0.000000 0.000000 0.000000 -3.354124 0.030353 -19.369180 4.193148 3.182577 0.979030 -10.496323 -2.858305 -2.387334 0.000000 0.000000 0.000000
-4.258469 76.205029 363.308508 7.920775 7.166510 19.371365 0.401295 -0.318878 -19.581117 0.235212 -0.048748 0.399769 6.753648 -0.252879 0.201917 0.000000 0.000000 0.000000 1.316417 -0.824606 -1.264592 -4.720794 4.480321 -1.757581 -6.951733 13.136333 2.963439 10.467374 -15.189959 -1.417427 0.000000 0.000000 0.000000 0.000000 0.000000 0.000000 10.409821 10.220338 0.646386 23.878039 31.470935 -22.416741 -0.168499 -16.508304 -11.954809 -24.859139 10.984265 8.900464 0.000000 0.000000 0.000000 0.000000 0.000000 0.000000 -4.170570 2.993212 -20.218139 5.588129 -10.402466 3.755335 -11.785815 22.736454 -4.372510 0.000000 0.000000 0.000000 -3.430048 -0.004012 -18.731094 3.985142 3.404722 0.982934 -10.545247 -2.188570 -2.765553 0.000000 0.000000 0.000000
-4.822234 76.151976 363.561655 8.480511 7.494519 18.805003 0.417816 -0.307880 -19.055837 0.166934 -0.070018 0.417830 6.406787 -0.714840 0.197824 0.000000 0.000000 0.000000 1.136788 -2.281422 -1.093171 -5.474640 2.361773 -1.380743 -7.073402 15.357758 2.815412 10.662118 -14.728252 -1.300276 0.000000 0.000000 0.000000 0.000000 0.000000 0.000000 9.617197 10.063878 0.700141 27.795110 30.366851 -23.674691 -1.383136 -8.581378 -17.895519 -19.401111 9.091227 10.566500 0.000000 0.000000 0.000000 0.000000 0.000000 0.000000 -4.540660 3.306801 -19.769266 6.290908 -11.215410 4.225033 -11.827229 22.074711 -5.015127 0.000000 0.000000 0.000000 -3.927470 -0.196756 -18.245390 4.245474 3.991518 1.064612 -10.160476 -3.306025 -3.635815 0.000000 0.000000 0.000000
-5.253202 76.097243 363.795148 8.999412 7.726344 18.674281 0.353080 -0.285298 -18.967760 0.096567 -0.082506 0.429196 5.936016 -1.262490 0.179828 0.000000 0.000000 0.000000 0.889722 -3.509047 -0.942560 -6.151054 0.332606 -0.990547 -8.752270 15.713200 2.570264 13.023858 -11.311164 -1.182270 0.000000 0.000000 0.000000 0.000000 0.000000 0.000000 7.631909 9.450086 0.833554 29.407588 24.331655 -21.344450 -5.161619 -2.284271 -20.245627 -13.955034 10.911988 11.155902 0.000000 0.000000 0.000000 0.000000 0.000000 0.000000 -5.024774 3.841337 -19.788636 7.016594 -11.870908 4.645739 -11.892744 23.349032 -5.912094 0.000000 0.000000 0.000000 -4.374456 -0.244826 -18.178836 4.519526 4.290083 1.133997 -9.363644 -6.032948 -4.509853 0.000000 0.000000 0.000000
-5.579251 76.055148 363.931679 9.475718 7.854175 18.849106 0.244397 -0.283548 -19.178342 0.025010 -0.117482 0.438654 5.078187 -1.851274 0.118674 0.000000 0.000000 0.000000 0.161852 -4.602038 -0.832615 -6.278655 -0.793656 -0.698306 -11.467248 16.435067 2.574195 15.636412 -10.510427 -0.470232 0.000000 0.000000 0.000000 0.000000 0.000000 0.000000 4.945074 8.812838 0.978058 28.755793 20.415819 -18.638837 -4.199247 3.047542 -21.469053 -9.378462 11.713654 11.658510 0.000000 0.000000 0.000000 0.000000 0.000000 0.000000 -5.473284 4.423511 -20.099542 7.415102 -12.290675 4.879132 -12.436991 26.715070 -6.386874 0.000000 0.000000 0.000000 -4.799486 -0.227339 -18.418498 4.607929 4.474438 1.167339 -8.111609 -8.858583 -5.439027 0.000000 0.000000 0.000000
-5.752969 76.037467 364.099000 10.096219 7.953822 19.157919 0.177668 -0.295532 -19.522737 -0.033040 -0.164394 0.459665 4.379519 -2.204520 0.037790 0.000000 0.000000 0.000000 -0.552689 -5.371178 -0.791574 -6.631309 -1.938313 -0.420724 -12.996798 18.204708 2.787654 17.418035 -11.087664 0.126166 0.000000 0.000000 0.000000 0.000000 0.000000 0.000000 2.509288 7.851984 0.981978 24.404080 16.220895 -15.031204 -1.156097 5.858548 -20.111500 -7.138666 13.837883 10.271484 0.000000 0.000000 0.000000 0.000000 0.000000 0.000000 -6.245981 5.239105 -20.599263 8.281461 -12.838358 5.294305 -10.956131 20.257590 -6.968398 0.000000 0.000000 0.000000 -5.538518 -0.060006 -18.802622 4.869890 4.652650 1.192313 -5.518410 -16.273664 -6.638656 0.000000 0.000000 0.000000
-6.101344 76.010475 364.317854 10.339045 7.891724 19.430861 0.096255 -0.278054 -19.807055 -0.042478 -0.195211 0.468368 3.994467 -2.326401 -0.015351 0.000000 0.000000 0.000000 -1.093411 -5.655729 -0.788620 -7.056563 -2.870609 -0.138568 -14.638276 18.072358 2.772201 19.497716 -10.080424 0.530441 0.000000 0.000000 0.000000 0.000000 0.000000 0.000000 0.631044 6.937198 0.962722 17.644909 11.714356 -11.182836 2.743333 3.739706 -15.367914 -3.684178 19.089873 5.962187 0.000000 0.000000 0.000000 0.000000 0.000000 0.000000 -6.148425 6.048518 -20.959970 8.544156 -13.444554 5.564146 -10.747642 18.742879 -7.170578 0.000000 0.000000 0.000000 -5.485967 0.117676 -19.078073 4.678183 4.713590 1.192292 -4.868533 -15.914592 -7.415933 0.000000 0.000000 0.000000
-6.436537 75.975063 364.508240 10.378972 7.635985 19.317841 -0.020719 -0.306952 -19.676591 -0.073126 -0.257475 0.467025 4.147868 -1.928658 -0.062165 0.000000 0.000000 0.000000 -1.979679 -7.202177 -0.581712 -6.591768 -1.308038 -0.087597 -17.454324 18.170538 3.011568 22.844576 -9.507794 1.138393 0.000000 0.000000 0.000000 0.000000 0.000000 0.000000 -0.575765 6.178163 0.883159 9.249762 7.491397 -7.682145 6.711350 -2.363614 -8.961841 -0.623434 22.348202 0.733563 0.000000 0.000000 0.000000 0.000000 0.000000 0.000000 -5.719517 6.651797 -20.847858 8.617694 -13.818114 5.758455 -10.906942 19.715334 -7.642050 0.000000 0.000000 0.000000 -5.077034 0.402848 -18.920329 4.393558 4.672297 1.183504 -6.192578 -8.890942 -7.612688 0.000000 0.000000 0.000000
-6.715061 75.931548 364.659274 10.443918 7.379178 18.851148 0.010709 -0.338991 -19.183370 -0.058444 -0.294057 0.477251 3.686665 -2.080302 -0.152619 0.000000 0.000000 0.000000 -2.749836 -8.459585 -0.438864 -6.576774 -0.186663 0.030372 -19.202340 20.572193 3.660699 26.721596 -13.356035 2.479348 0.000000 0.000000 0.000000 0.000000 0.000000 0.000000 -1.109737 5.768959 0.771715 0.936245 2.566575 -5.026212 6.192753 0.097578 -7.726711 2.551718 12.189300 2.237646 0.000000 0.000000 0.000000 0.000000 0.000000 0.000000 -5.452598 7.055524 -20.368058 8.295948 -13.883252 5.691490 -12.193704 25.804677 -7.609714 0.000000 0.000000 0.000000 -4.796648 0.654376 -18.423435 4.279152 4.740643 1.194601 -7.150113 -7.834101 -7.123034 0.000000 0.000000 0.000000
-6.928432 75.885563 364.739058 10.441303 7.063987 17.771689 0.008795 -0.393167 -18.069528 -0.061129 -0.322484 0.479935 3.311489 -2.244620 -0.243345 0.000000 0.000000 0.000000 -3.391476 -9.586510 -0.299403 -6.414221 1.392321 0.074661 -22.004824 21.454816 4.208943 26.518942 -15.467703 3.615989 0.000000 0.000000 0.000000 0.000000 0.000000 0.000000 -0.933080 5.642451 0.655183 -5.319908 0.654651 -3.573465 6.474521 1.099808 -7.024087 -4.101496 -0.314958 5.349995 0.000000 0.000000 0.000000 0.000000 0.000000 0.000000 -5.334154 7.122405 -19.225248 8.177344 -13.829910 5.673996 -12.022686 27.216387 -8.211494 0.000000 0.000000 0.000000 -4.491179 0.905563 -17.306021 4.232158 4.842433 1.209733 -7.268709 -10.108657 -6.876543 0.000000 0.000000 0.000000
-7.029775 75.873211 364.725855 10.423541 6.739171 16.493310 0.009740 -0.435392 -16.756971 -0.078281 -0.332744 0.478177 3.147628 -2.568301 -0.324178 0.000000 0.000000 0.000000 -4.039167 -10.398771 -0.213859 -6.083388 2.913219 0.072303 -24.148669 21.471404 4.462921 27.960449 -16.009743 4.293594 0.000000 0.000000 0.000000 0.000000 0.000000 0.000000 0.050561 5.940944 0.545193 -11.455596 -1.537864 -2.586796 8.649975 0.270376 -6.167918 -6.504209 -5.760834 5.296076 0.000000 0.000000 0.000000 0.000000 0.000000 0.000000 -5.338836 6.991114 -17.861319 7.892895 -13.514736 5.510532 -10.949763 27.716515 -9.380713 0.000000 0.000000 0.000000 -4.334080 1.140060 -15.997592 4.342512 4.950262 1.235012 -8.080239 -9.183936 -6.552852 0.000000 0.000000 0.000000
-7.158962 75.876677 364.680123 10.472809 6.521749 15.285720 -0.032291 -0.421368 -15.535674 -0.119736 -0.307764 0.470502 2.626100 -3.278424 -0.397897 0.000000 0.000000 0.000000 -4.625232 -11.151789 -0.156763 -6.591133 3.563385 0.392411 -22.889806 21.754356 4.230470 27.763742 -19.956815 4.965138 0.000000 0.000000 0.000000 0.000000 0.000000 0.000000 0.475402 6.024396 0.488363 -11.223149 1.615575 -2.595478 7.783649 -7.929340 -3.336799 -10.176114 -8.315074 4.858433 0.000000 0.000000 0.000000 0.000000 0.000000 0.000000 -5.330480 6.744181 -16.571701 7.951656 -13.527029 5.584014 -8.862889 21.226272 -10.513653 0.000000 0.000000 0.000000 -4.194552 1.270777 -14.779308 4.273602 4.938584 1.246831 -9.454433 -5.564157 -5.990865 0.000000 0.000000 0.000000
-7.176244 75.899607 364.551026 10.477967 6.294075 13.696181 -0.079045 -0.475494 -13.923401 -0.144374 -0.317441 0.466725 2.276364 -3.821921 -0.480166 0.000000 0.000000 0.000000 -5.418119 -11.764046 -0.134588 -6.813934 3.777179 0.719114 -20.848606 23.472042 4.285341 25.888825 -20.825795 4.824556 0.000000 0.000000 0.000000 0.000000 0.000000 0.000000 0.657447 6.354123 0.459417 -7.677421 2.098980 -3.386453 7.737230 -4.367990 -5.106729 -9.002702 -4.140987 5.567153 0.000000 0.000000 0.000000 0.000000 0.000000 0.000000 -5.543907 6.291231 -14.891957 8.336876 -13.479707 5.741044 -7.934811 19.342410 -11.539936 0.000000 0.000000 0.000000 -4.188434 1.452576 -13.161846 4.315018 4.804948 1.239864 -10.525978 -0.515838 -5.749338 0.000000 0.000000 0.000000
-7.130867 75.928322 364.457105 10.484539 6.038246 12.393642 -0.164295 -0.538988 -12.597175 -0.179330 -0.332554 0.460702 1.935424 -4.301979 -0.566169 0.000000 0.000000 0.000000 -6.082474 -11.801951 -0.162831 -6.845628 3.343127 0.972316 -18.514842 24.105437 3.973619 24.349649 -21.006766 4.459730 0.000000 0.000000 0.000000 0.000000 0.000000 0.000000 0.775995 6.403397 0.397263 -7.098740 2.461397 -3.438476 7.768028 -4.253151 -5.199900 -9.268210 -5.418504 5.850180 0.000000 0.000000 0.000000 0.000000 0.000000 0.000000 -5.785746 6.082884 -13.533573 8.171088 -13.235720 5.578045 -7.320391 22.142503 -12.597050 0.000000 0.000000 0.000000 -4.312364 1.725276 -11.819925 4.507162 4.671694 1.232205 -11.852657 7.661868 -5.612028 0.000000 0.000000 0.000000
-7.049467 75.974478 364.406966 10.476360 5.755993 11.781455 -0.248939 -0.587398 -11.959701 -0.217062 -0.361933 0.455184 1.680090 -4.480687 -0.638508 0.000000 0.000000 0.000000 -6.685943 -11.452868 -0.220164 -6.885822 2.305408 1.221597 -15.070077 25.831012 3.648772 22.012726 -22.557702 4.081981 0.000000 0.000000 0.000000 0.000000 0.000000 0.000000 0.863157 6.453682 0.335240 -6.791742 2.743778 -3.416843 8.388775 -4.189415 -5.345439 -10.001115 -4.482103 5.940266 0.000000 0.000000 0.000000 0.000000 0.000000 0.000000 -5.959706 6.183320 -12.893916 8.331681 -13.150554 5.593185 -7.422804 22.399113 -12.540191 0.000000 0.000000 0.000000 -4.440729 2.055454 -11.164759 4.657841 4.555456 1.212841 -11.487155 8.486250 -5.986752 0.000000 0.000000 0.000000
-6.918156 76.004197 364.456495 10.417357 5.473734 11.856356 -0.341665 -0.610856 -12.010836 -0.247863 -0.394135 0.448174 1.463881 -4.480387 -0.692888 0.000000 0.000000 0.000000 -6.937043 -10.705743 -0.277449 -6.691083 1.518690 1.276508 -11.940318 27.125429 3.229903 20.203688 -22.525885 3.452162 0.000000 0.000000 0.000000 0.000000 0.000000 0.000000 0.988618 6.390162 0.269227 -6.368976 3.136019 -3.400519 8.844206 -5.792438 -4.634806 -11.866542 -1.420991 5.650868 0.000000 0.000000 0.000000 0.000000 0.000000 0.000000 -6.021999 6.650587 -12.976595 8.398246 -13.474444 5.611135 -6.444623 20.918183 -13.039737 0.000000 0.000000 0.000000 -4.491768 2.423212 -11.190235 4.734257 4.459950 1.180269 -11.099475 11.037531 -6.516931 0.000000 0.000000 0.000000
